<svg width="91" height="58" viewBox="0 0 91 58" fill="none" xmlns="http://www.w3.org/2000/svg">
<g clip-path="url(#clip0_2855_11792)">
<path fill-rule="evenodd" clip-rule="evenodd" d="M45.955 3.66548V4.33096H46.9504H47.9459V5.33584V6.34071L46.504 6.43419C39.579 6.88304 33.1813 9.19226 28.7966 12.8256C27.5269 13.8777 26.7095 14.7341 25.765 16.0014C23.9061 18.4956 23.005 21.1295 23.0012 24.0802L23 25.0003L49.0293 24.9806L75.0586 24.9609L75.0911 23.8392C75.1094 23.208 75.0786 22.7362 75.0207 22.7602C74.964 22.7836 74.885 22.4695 74.8449 22.0624C74.6091 19.6611 72.8702 16.3455 70.7196 14.1957C66.2863 9.76441 59.2891 6.93933 51.496 6.43419L50.0541 6.34071V5.33584V4.33096H51.0495H52.045V3.66548V3H49H45.955V3.66548ZM46.1306 7.78872C40.9005 8.18378 35.5427 9.98316 31.7675 12.6124C27.6758 15.4622 25.4672 18.8411 25.0392 22.9057L24.9589 23.669H49H73.0411L72.9608 22.9057C72.5328 18.8411 70.3242 15.4622 66.2325 12.6124C62.3896 9.93603 57.0764 8.17305 51.669 7.78011C50.3364 7.68334 47.4675 7.6878 46.1306 7.78872ZM47.0676 9.07983C42.0924 9.47528 38.468 10.4841 34.9167 12.462C34.4174 12.7401 34.009 12.9896 34.009 13.0165C34.009 13.0434 34.312 13.2657 34.6824 13.5105L35.3559 13.9556L36.1171 13.5215C38.3557 12.2448 41.2519 11.2509 44.1771 10.7557C45.2785 10.5693 47.4934 10.3594 48.3598 10.3594H49V9.69395V9.02847L48.2095 9.04021C47.7746 9.04663 47.2608 9.06448 47.0676 9.07983ZM31.9983 14.4169C31.1564 15.1162 30.6954 15.5828 30.7686 15.662C30.8056 15.7021 31.1641 15.8702 31.5654 16.0357L32.2946 16.3367L32.5955 16.0724C32.761 15.9271 33.1475 15.5975 33.4543 15.34L34.0122 14.872L33.6886 14.644C33.5106 14.5187 33.1778 14.3163 32.9491 14.1943L32.5335 13.9725L31.9983 14.4169ZM23.0465 23.9039C23.0465 24.5283 23.0648 24.7838 23.087 24.4715C23.1092 24.1593 23.1092 23.6485 23.087 23.3363C23.0648 23.0241 23.0465 23.2795 23.0465 23.9039Z" fill="black"/>
</g>
<g clip-path="url(#clip1_2855_11792)">
<path d="M86.8528 9.42022L83.337 7.81133L82.2776 4.09167C82.2148 3.87141 82.0861 3.67569 81.9086 3.53093C81.7311 3.38616 81.5135 3.29932 81.2851 3.28211C81.0568 3.2649 80.8286 3.31815 80.6315 3.43469C80.4343 3.55122 80.2776 3.72543 80.1826 3.9338L78.5693 7.45205L74.8496 8.51147C74.6294 8.57421 74.4336 8.703 74.2889 8.88047C74.1441 9.05794 74.0573 9.27554 74.0401 9.50391C74.0228 9.73229 74.0761 9.96045 74.1926 10.1576C74.3092 10.3548 74.4834 10.5114 74.6918 10.6065L78.21 12.2198L79.2694 15.9394C79.3322 16.1597 79.461 16.3554 79.6384 16.5002C79.8159 16.6449 80.0335 16.7318 80.2619 16.749C80.4902 16.7662 80.7184 16.713 80.9156 16.5964C81.1127 16.4799 81.2694 16.3057 81.3644 16.0973L82.9777 12.5791L86.6974 11.5196C86.9176 11.4569 87.1134 11.3281 87.2581 11.1506C87.4029 10.9732 87.4897 10.7556 87.507 10.5272C87.5242 10.2988 87.4709 10.0707 87.3544 9.8735C87.2378 9.67635 87.0636 9.51968 86.8553 9.42464L86.8528 9.42022ZM82.4195 11.5653C82.3413 11.5877 82.2688 11.6267 82.2071 11.6798C82.1454 11.7328 82.0959 11.7986 82.0621 11.8726L80.3516 15.6141L79.2237 11.6616C79.2015 11.5825 79.1622 11.5093 79.1087 11.447C79.0552 11.3848 78.9887 11.335 78.9138 11.3012L75.1749 9.59366L79.1275 8.46577C79.2065 8.44355 79.2798 8.40429 79.342 8.35076C79.4043 8.29722 79.4541 8.23071 79.4879 8.15588L81.1954 4.41698L82.3233 8.36954C82.3456 8.4478 82.3846 8.52027 82.4377 8.58197C82.4908 8.64368 82.5566 8.69313 82.6306 8.72693L86.3721 10.4374L82.4195 11.5653ZM83.5666 2.8928C83.5778 2.74404 83.6477 2.60582 83.7608 2.50856C83.8739 2.4113 84.021 2.36295 84.1698 2.37416L85.2916 2.4587L85.3762 1.33688C85.3874 1.18812 85.4572 1.0499 85.5703 0.952636C85.6835 0.855372 85.8306 0.807027 85.9793 0.818238C86.1281 0.829448 86.2663 0.899295 86.3636 1.01241C86.4608 1.12553 86.5092 1.27265 86.498 1.42142L86.4134 2.54323L87.5353 2.62777C87.684 2.63898 87.8222 2.70883 87.9195 2.82195C88.0168 2.93506 88.0651 3.08219 88.0539 3.23095C88.0427 3.37971 87.9729 3.51793 87.8597 3.61519C87.7466 3.71246 87.5995 3.7608 87.4507 3.74959L86.3289 3.66505L86.2444 4.78687C86.2332 4.93564 86.1633 5.07385 86.0502 5.17112C85.9371 5.26838 85.79 5.31672 85.6412 5.30551C85.4924 5.2943 85.3542 5.22446 85.257 5.11134C85.1597 4.99822 85.1113 4.8511 85.1226 4.70234L85.2071 3.58052L84.0853 3.49598C83.9365 3.48477 83.7983 3.41492 83.701 3.30181C83.6038 3.18869 83.5554 3.04157 83.5666 2.8928ZM90.6048 6.80775C90.5936 6.95651 90.5238 7.09473 90.4107 7.19199C90.2976 7.28926 90.1504 7.3376 90.0017 7.32639L89.4408 7.28412L89.3985 7.84503C89.3873 7.99379 89.3174 8.13201 89.2043 8.22927C89.0912 8.32654 88.9441 8.37488 88.7953 8.36367C88.6465 8.35246 88.5083 8.28261 88.4111 8.1695C88.3138 8.05638 88.2655 7.90926 88.2767 7.76049L88.3189 7.19958L87.758 7.15732C87.6093 7.14611 87.4711 7.07626 87.3738 6.96314C87.2765 6.85002 87.2282 6.7029 87.2394 6.55414C87.2506 6.40538 87.3204 6.26716 87.4336 6.1699C87.5467 6.07263 87.6938 6.02429 87.8426 6.0355L88.4035 6.07777L88.4457 5.51686C88.457 5.36809 88.5268 5.22988 88.6399 5.13261C88.753 5.03535 88.9002 4.987 89.0489 4.99821C89.1977 5.00942 89.3359 5.07927 89.4332 5.19239C89.5304 5.30551 89.5788 5.45263 89.5676 5.60139L89.5253 6.1623L90.0862 6.20457C90.235 6.21578 90.3732 6.28563 90.4704 6.39875C90.5677 6.51186 90.6161 6.65899 90.6048 6.80775Z" fill="url(#paint0_linear_2855_11792)"/>
</g>
<path fill-rule="evenodd" clip-rule="evenodd" d="M80.1526 28.5H85.0106V52H80.1526V28.5ZM82.1526 30.5H83.0106V50H82.1526V30.5Z" fill="url(#paint1_linear_2855_11792)"/>
<path fill-rule="evenodd" clip-rule="evenodd" d="M67.9823 28.5H71.1003C73.475 28.5 75.6034 29.1351 77.1778 30.6813C78.7763 32.2334 79.4443 34.3474 79.4443 36.714C79.4443 38.1931 79.0823 39.5869 78.3477 40.8542C77.6399 42.1053 76.6572 43.1106 75.4219 43.8426L75.41 43.8496L75.3981 43.8565C75.2593 43.9361 75.1191 44.0113 74.9774 44.0819L82.488 52H75.86L72.8143 48.8067V52H67.9823V42.5196L66.4727 40.928H67.9823V28.5ZM69.9823 50H70.8143V43.812L76.7163 50H77.8343L71.1263 42.928H71.3083C71.4594 42.928 71.6087 42.9232 71.7563 42.9135C71.8321 42.9086 71.9074 42.9023 71.9823 42.8948C72.196 42.8734 72.4061 42.8416 72.6124 42.7995C72.9216 42.7363 73.2225 42.6499 73.5151 42.5402C73.8163 42.4274 74.1087 42.2898 74.3924 42.1277C74.3957 42.1258 74.399 42.1239 74.4023 42.122C75.3286 41.5731 76.0597 40.829 76.5955 39.8896C76.5967 39.8876 76.5979 39.8855 76.5991 39.8834C76.6035 39.8756 76.6079 39.8678 76.6123 39.86C77.1628 38.9139 77.4401 37.8739 77.4443 36.74C77.4443 36.7313 77.4443 36.7227 77.4443 36.714C77.4443 34.7207 76.8896 33.1867 75.7803 32.112C75.7778 32.1095 75.7752 32.107 75.7726 32.1044C75.7708 32.1027 75.769 32.1009 75.7672 32.0991C74.8404 31.1938 73.5788 30.6729 71.9823 30.5364C71.715 30.5135 71.4384 30.5014 71.1523 30.5001C71.135 30.5 71.1177 30.5 71.1003 30.5H69.9823V50ZM70.8143 42.174H71.2823C71.291 42.174 71.2997 42.174 71.3083 42.174C71.5311 42.173 71.7495 42.1596 71.9635 42.1339C71.9677 42.1334 71.9719 42.1329 71.9762 42.1324C71.9782 42.1321 71.9803 42.1319 71.9823 42.1316C72.2675 42.0963 72.5448 42.039 72.8143 41.9596C72.8532 41.9481 72.8919 41.9362 72.9304 41.9238C73.2972 41.8061 73.6492 41.6468 73.9863 41.446C73.9901 41.4437 73.9939 41.4415 73.9977 41.4392C74.0008 41.4373 74.004 41.4354 74.0071 41.4336C74.8119 40.9496 75.4463 40.3037 75.9103 39.496C75.9148 39.488 75.9193 39.48 75.9238 39.4719C75.9255 39.4688 75.9273 39.4656 75.929 39.4625C76.3845 38.6393 76.6123 37.7318 76.6123 36.74C76.6123 36.7313 76.6123 36.7227 76.6123 36.714C76.6076 34.9896 76.1384 33.6537 75.2045 32.7064C75.203 32.7048 75.2015 32.7033 75.1999 32.7017C75.1941 32.6958 75.1882 32.6899 75.1823 32.684C74.5683 32.0586 73.7789 31.6383 72.8143 31.4232C72.5501 31.3643 72.2728 31.3208 71.9823 31.2926C71.7166 31.2669 71.44 31.254 71.1523 31.254H70.8143V42.174ZM72.8143 39.8111C72.8643 39.7847 72.9138 39.7569 72.9627 39.7278C73.4827 39.418 73.8767 39.018 74.1715 38.5077C74.4593 37.9931 74.6123 37.4174 74.6123 36.74C74.6123 35.3547 74.2438 34.574 73.7681 34.0982L73.7616 34.0917L73.7552 34.0852C73.5303 33.8561 73.2295 33.6498 72.8143 33.5001V39.8111Z" fill="url(#paint2_linear_2855_11792)"/>
<path fill-rule="evenodd" clip-rule="evenodd" d="M44.4891 46.2898L44.4827 46.2786C43.4128 44.3857 42.8718 42.3397 42.8718 40.1725C42.8718 38.013 43.4266 35.9829 44.5239 34.118C45.6119 32.2513 47.0927 30.7581 48.946 29.6652C50.815 28.5455 52.8583 27.9805 55.0378 27.9805C57.2266 27.9805 59.2715 28.5326 61.1311 29.6401C62.9701 30.7352 64.4341 32.2311 65.5039 34.0989C66.6002 35.9651 67.1518 38.0019 67.1518 40.1725C67.1518 42.3872 66.6042 44.4646 65.5088 46.3674C64.4373 48.2415 62.9634 49.7459 61.1108 50.8575L61.1051 50.8609C59.2455 51.9683 57.2006 52.5205 55.0118 52.5205C52.8221 52.5205 50.7714 51.9413 48.8989 50.797C47.0564 49.6711 45.5814 48.1654 44.4956 46.301L44.4891 46.2898ZM63.7449 45.4228C63.7546 45.4061 63.7642 45.3893 63.7738 45.3725C64.684 43.7926 65.1433 42.0766 65.1517 40.2245C65.1518 40.2071 65.1518 40.1898 65.1518 40.1725C65.1518 38.3525 64.6925 36.6625 63.7738 35.1025C63.7701 35.0959 63.7664 35.0894 63.7626 35.0829C62.8624 33.5148 61.6441 32.2733 60.1078 31.3585C60.1005 31.3541 60.0932 31.3498 60.0859 31.3455C60.0839 31.3443 60.0818 31.343 60.0797 31.3418C58.5447 30.4342 56.864 29.9805 55.0378 29.9805C53.2257 29.9805 51.5425 30.4444 49.9881 31.3723C49.9862 31.3735 49.9842 31.3747 49.9822 31.3758C49.9774 31.3787 49.9726 31.3816 49.9678 31.3845C48.4228 32.2943 47.1923 33.5273 46.2763 35.0832C46.2751 35.0853 46.2738 35.0874 46.2726 35.0895C46.265 35.1025 46.2574 35.1155 46.2498 35.1285C45.3312 36.6885 44.8718 38.3698 44.8718 40.1725C44.8718 40.1898 44.8719 40.2071 44.8719 40.2245C44.8805 42.025 45.3311 43.715 46.2238 45.2945C46.2443 45.3296 46.2649 45.3645 46.2857 45.3993C46.2876 45.4025 46.2895 45.4057 46.2914 45.4089C47.2029 46.9331 48.4197 48.1603 49.9418 49.0905C49.9606 49.102 49.9795 49.1134 49.9983 49.1247C50.0002 49.1259 50.0021 49.127 50.004 49.1282C51.5467 50.0564 53.216 50.5205 55.0118 50.5205C56.8335 50.5205 58.5103 50.069 60.0423 49.1659C60.0443 49.1647 60.0463 49.1635 60.0483 49.1624C60.0595 49.1557 60.0707 49.1491 60.0818 49.1425C61.6243 48.217 62.8448 46.978 63.7433 45.4255C63.7438 45.4246 63.7444 45.4237 63.7449 45.4228ZM46.9135 44.8928C46.9151 44.8958 46.9168 44.8988 46.9185 44.9018C46.938 44.9375 46.9578 44.973 46.9778 45.0085C47.816 46.4454 48.9328 47.5954 50.3282 48.4583C50.3467 48.4697 50.3652 48.4811 50.3838 48.4925C51.8052 49.3418 53.3478 49.7665 55.0118 49.7665C56.6758 49.7665 58.2185 49.3418 59.6398 48.4925C59.6525 48.4847 59.6652 48.477 59.6778 48.4692C59.6786 48.4687 59.6793 48.4683 59.6801 48.4678C61.0824 47.6038 62.1957 46.4507 63.0198 45.0085C63.0295 44.9917 63.0391 44.9749 63.0487 44.9581C63.0492 44.9572 63.0496 44.9564 63.0501 44.9556C63.8793 43.497 64.2938 41.9199 64.2938 40.2245C64.2938 40.2071 64.2938 40.1898 64.2937 40.1725C64.2853 38.5049 63.8749 36.9545 63.0623 35.5215C63.0606 35.5183 63.0588 35.5152 63.057 35.5121C63.0533 35.5055 63.0496 35.499 63.0458 35.4925C62.2195 34.0464 61.1025 32.8995 59.6949 32.0519C59.6852 32.0461 59.6755 32.0403 59.6658 32.0345C58.2445 31.1678 56.7018 30.7345 55.0378 30.7345C53.3565 30.7345 51.8052 31.1678 50.3838 32.0345C50.3774 32.0383 50.3711 32.0421 50.3647 32.0459C50.3629 32.047 50.3611 32.0481 50.3593 32.0492C48.9494 32.8971 47.8223 34.0449 46.9778 35.4925C46.9692 35.5075 46.9607 35.5225 46.9522 35.5376C46.9516 35.5387 46.9509 35.5398 46.9503 35.541C46.145 36.9686 45.7383 38.5124 45.73 40.1725C45.7299 40.1898 45.7298 40.2071 45.7298 40.2245C45.7298 41.8957 46.1244 43.4518 46.9135 44.8928ZM48.71 36.4924C48.0559 37.6399 47.7298 38.8721 47.7298 40.2245C47.7298 41.5962 48.057 42.8475 48.7125 44.0129C49.3944 45.1776 50.2906 46.0915 51.4175 46.7802C52.5248 47.4402 53.7102 47.7665 55.0118 47.7665C56.3134 47.7665 57.4988 47.4402 58.6062 46.7802C59.7333 46.0914 60.6192 45.1785 61.2833 44.0162L61.2871 44.0096C61.9597 42.8429 62.2938 41.5932 62.2938 40.2245C62.2938 38.8691 61.9663 37.6345 61.3093 36.4847C60.6457 35.3233 59.7621 34.4219 58.6399 33.7513L58.6322 33.7467L58.6246 33.7421C57.5168 33.0665 56.3343 32.7345 55.0378 32.7345C53.72 32.7345 52.5295 33.0686 51.425 33.7421L51.4174 33.7467L51.4097 33.7513C50.2864 34.4226 49.3917 35.3265 48.71 36.4924Z" fill="url(#paint3_linear_2855_11792)"/>
<path fill-rule="evenodd" clip-rule="evenodd" d="M34.2026 28.5H39.0606V47.246H45.0926V52H34.2026V28.5ZM37.0606 30.5H36.2026V50H43.0926V49.246H37.0606V30.5Z" fill="url(#paint4_linear_2855_11792)"/>
<path fill-rule="evenodd" clip-rule="evenodd" d="M23.1782 28.5H34.1722V33.254H28.0362V39.862H33.1582V44.616H28.0362V47.246H34.1722V52H23.1782V28.5ZM31.1582 42.616V41.862H26.0362V31.254H32.1722V30.5H25.1782V50H32.1722V49.246H26.0362V42.616H31.1582Z" fill="url(#paint5_linear_2855_11792)"/>
<path fill-rule="evenodd" clip-rule="evenodd" d="M24.9211 28.5L12.9178 55.3411L0.914551 28.5H6.23062L12.984 43.5534L19.6502 28.5H24.9211ZM21.8358 30.5H20.9518L12.9958 48.466L4.93582 30.5H3.99982L12.9178 50.442L21.8358 30.5Z" fill="url(#paint6_linear_2855_11792)"/>
<path fill-rule="evenodd" clip-rule="evenodd" d="M88 58L2 58L2 57L88 57V58Z" fill="black"/>
<defs>
<linearGradient id="paint0_linear_2855_11792" x1="82.5595" y1="14.4679" x2="83.6016" y2="0.639059" gradientUnits="userSpaceOnUse">
<stop stop-color="#15C5CE"/>
<stop offset="0.96" stop-color="#0B5768"/>
</linearGradient>
<linearGradient id="paint1_linear_2855_11792" x1="82.7932" y1="48.475" x2="82.7932" y2="28.5" gradientUnits="userSpaceOnUse">
<stop stop-color="#15C5CE"/>
<stop offset="0.96" stop-color="#0B5768"/>
</linearGradient>
<linearGradient id="paint2_linear_2855_11792" x1="75.178" y1="48.475" x2="75.178" y2="28.5" gradientUnits="userSpaceOnUse">
<stop stop-color="#15C5CE"/>
<stop offset="0.96" stop-color="#0B5768"/>
</linearGradient>
<linearGradient id="paint3_linear_2855_11792" x1="56.0695" y1="48.8395" x2="56.0695" y2="27.9805" gradientUnits="userSpaceOnUse">
<stop stop-color="#15C5CE"/>
<stop offset="0.96" stop-color="#0B5768"/>
</linearGradient>
<linearGradient id="paint4_linear_2855_11792" x1="40.122" y1="48.475" x2="40.122" y2="28.5" gradientUnits="userSpaceOnUse">
<stop stop-color="#15C5CE"/>
<stop offset="0.96" stop-color="#0B5768"/>
</linearGradient>
<linearGradient id="paint5_linear_2855_11792" x1="29.1541" y1="48.475" x2="29.1541" y2="28.5" gradientUnits="userSpaceOnUse">
<stop stop-color="#15C5CE"/>
<stop offset="0.96" stop-color="#0B5768"/>
</linearGradient>
<linearGradient id="paint6_linear_2855_11792" x1="13.9636" y1="51.315" x2="13.9636" y2="28.5" gradientUnits="userSpaceOnUse">
<stop stop-color="#15C5CE"/>
<stop offset="0.96" stop-color="#0B5768"/>
</linearGradient>
<clipPath id="clip0_2855_11792">
<rect width="52" height="22" fill="white" transform="translate(23 3)"/>
</clipPath>
<clipPath id="clip1_2855_11792">
<rect width="18" height="18" fill="white" transform="translate(73)"/>
</clipPath>
</defs>
</svg>
